<svg width="29" height="29" viewBox="0 0 29 29" fill="none" xmlns="http://www.w3.org/2000/svg">
<path d="M9.66675 9.66666L9.66675 8.45832C9.66675 5.78895 11.8307 3.62499 14.5001 3.62499V3.62499C17.1695 3.62499 19.3334 5.78895 19.3334 8.45832L19.3334 9.66666" stroke="#2B2E35" stroke-width="2.41667" stroke-linecap="round"/>
<path d="M18.125 16.9167V14.5" stroke="#2B2E35" stroke-width="2.41667" stroke-linecap="round"/>
<path d="M10.875 16.9167V14.5" stroke="#2B2E35" stroke-width="2.41667" stroke-linecap="round"/>
<path d="M4.83325 14.5C4.83325 12.2215 4.83325 11.0823 5.54108 10.3745C6.2489 9.66666 7.38813 9.66666 9.66659 9.66666H19.3333C21.6117 9.66666 22.7509 9.66666 23.4588 10.3745C24.1666 11.0823 24.1666 12.2215 24.1666 14.5V15.7083C24.1666 20.2652 24.1666 22.5437 22.7509 23.9593C21.3353 25.375 19.0568 25.375 14.4999 25.375V25.375C9.94301 25.375 7.66455 25.375 6.2489 23.9593C4.83325 22.5437 4.83325 20.2652 4.83325 15.7083V14.5Z" stroke="#2B2E35" stroke-width="2.41667"/>
</svg>
