<svg width="20" height="15" viewBox="0 0 20 15" fill="none" xmlns="http://www.w3.org/2000/svg">
<g clip-path="url(#clip0_1022_7382)">
<path d="M20.0003 10.7476C19.9632 10.3609 19.9199 9.9747 19.8891 9.58748C19.7931 8.38722 19.7049 7.18696 19.6058 5.9867C19.5782 5.53925 19.3845 5.11825 19.0625 4.80627C18.0999 3.88189 17.1313 2.96395 16.1569 2.05245C15.8179 1.74467 15.4152 1.51552 14.9775 1.38135C13.784 0.995178 12.5952 0.594918 11.3918 0.242145C10.9195 0.0990937 10.4298 0.0218281 9.93637 0.01253C6.85118 -0.00730041 3.76547 0.00209281 0.679751 0.00261466C0.22313 0.00261466 0.00134277 0.228577 0.00134277 0.687285C0.00134277 2.73156 0.00134277 4.77548 0.00134277 6.81905C0.00134277 7.26889 0.219999 7.50111 0.663052 7.50424C1.14211 7.50738 1.52254 7.69472 1.78817 8.09342C2.0804 8.53177 2.35855 8.98057 2.64922 9.4184C3.3652 10.5018 4.3322 11.3216 5.39417 12.048C6.45614 12.7744 7.49254 13.5196 8.54094 14.257C8.93598 14.5341 9.09254 14.5362 9.49593 14.2695C9.85778 14.0359 10.1712 13.7347 10.4191 13.3824C10.9122 12.6727 10.9796 11.9123 10.6497 11.1228C10.5819 10.96 10.6169 10.8874 10.7343 10.7851C11.2948 10.2988 11.8479 9.80457 12.4042 9.31194C12.6278 9.12105 12.8066 8.88317 12.9277 8.61527C13.0489 8.34736 13.1094 8.05603 13.1051 7.76204C13.1077 6.94795 13.1051 6.13438 13.1051 5.32081V5.08598C13.4504 5.08273 13.7848 5.20683 14.0444 5.43458C14.5104 5.85206 14.9665 6.27893 15.4054 6.72303C15.767 7.08833 15.8594 7.56843 15.9053 8.06524C15.9669 8.73216 16.0394 9.39857 16.1339 10.0618C16.2064 10.5501 16.4631 10.9921 16.8513 11.2969C17.2396 11.6018 17.7298 11.7464 18.2213 11.701C18.5777 11.6692 18.9336 11.6253 19.2911 11.6086C19.6298 11.593 19.8771 11.4641 20.0034 11.1389L20.0003 10.7476ZM18.7839 10.471C18.5652 10.4919 18.3664 10.5096 18.1655 10.5294C17.6958 10.5764 17.3232 10.2784 17.2705 9.80666C17.1875 9.0698 17.1139 8.3319 17.0252 7.59609C16.951 6.91671 16.6416 6.28465 16.1506 5.80927C15.7462 5.41266 15.3365 5.02127 14.918 4.6398C14.4034 4.17013 13.7929 3.91651 13.0946 3.9092C12.0144 3.90085 10.9336 3.89772 9.85288 3.9092C8.74394 3.92329 7.87349 4.40549 7.26188 5.3276C6.53546 6.42349 6.57616 7.94469 7.40747 9.08911C7.77277 9.59531 8.25235 10.0222 8.68236 10.4825C8.8911 10.7058 9.1228 10.9093 9.3138 11.1468C9.85183 11.8153 9.79234 12.4634 9.16768 13.0463C9.06958 13.1376 9.00434 13.1507 8.88849 13.0667C7.76964 12.2719 6.64453 11.486 5.52307 10.6943C4.71691 10.1282 4.02866 9.41049 3.49671 8.58135C3.22952 8.16387 2.97068 7.74378 2.6821 7.34299C2.33246 6.85819 1.86801 6.52525 1.26997 6.40366C1.24134 6.39559 1.21369 6.38439 1.18751 6.37026V1.17417H1.32006C4.19704 1.17417 7.07453 1.16791 9.95151 1.18252C10.3289 1.18918 10.7034 1.24999 11.0636 1.36308C12.251 1.72351 13.4319 2.10411 14.6064 2.5049C14.9144 2.60966 15.1983 2.77504 15.4414 2.99126C16.3693 3.83771 17.271 4.71338 18.1827 5.57704C18.3417 5.72461 18.4365 5.92865 18.4467 6.14534C18.4864 6.7032 18.5355 7.26054 18.5793 7.8184C18.6456 8.69407 18.7134 9.56922 18.7839 10.471ZM8.82796 9.00979C9.21361 8.66745 9.5789 8.34495 9.94263 8.02088C10.1676 7.8272 10.3468 7.58617 10.4676 7.31506C10.5885 7.04394 10.6478 6.74946 10.6414 6.45271C10.6414 6.07002 10.6414 5.68646 10.6414 5.30203V5.09329H11.9111C11.9193 5.11376 11.9251 5.13513 11.9283 5.15695C11.9283 6.04775 11.9419 6.93856 11.9199 7.82884C11.9119 8.02347 11.8341 8.20871 11.7008 8.35069C11.1058 8.91273 10.4843 9.44658 9.86436 9.99609L8.82796 9.00979ZM8.15477 8.04175C7.55464 6.82897 8.23722 5.32812 9.45418 5.1413C9.45418 5.64749 9.46775 6.15317 9.44531 6.65467C9.429 6.80417 9.36109 6.94331 9.25327 7.04815C8.90467 7.38787 8.53363 7.70255 8.15477 8.04123V8.04175Z" fill="#BCE8B1"/>
</g>
<defs>
<clipPath id="clip0_1022_7382">
<rect width="20" height="14.4673" fill="white"/>
</clipPath>
</defs>
</svg>
