<svg width="20" height="21" viewBox="0 0 20 21" fill="none" xmlns="http://www.w3.org/2000/svg">
<path fill-rule="evenodd" clip-rule="evenodd" d="M10.0002 8.66516C10.5306 8.66516 11.0393 8.45445 11.4144 8.07937C11.7895 7.7043 12.0002 7.19559 12.0002 6.66516C12.0002 6.13473 11.7895 5.62602 11.4144 5.25095C11.0393 4.87587 10.5306 4.66516 10.0002 4.66516C9.46975 4.66516 8.96104 4.87587 8.58597 5.25095C8.2109 5.62602 8.00018 6.13473 8.00018 6.66516C8.00018 7.19559 8.2109 7.7043 8.58597 8.07937C8.96104 8.45445 9.46975 8.66516 10.0002 8.66516ZM10.0002 5.66516C10.2654 5.66516 10.5198 5.77052 10.7073 5.95805C10.8948 6.14559 11.0002 6.39994 11.0002 6.66516C11.0002 6.93038 10.8948 7.18473 10.7073 7.37227C10.5198 7.5598 10.2654 7.66516 10.0002 7.66516C9.73497 7.66516 9.48061 7.5598 9.29308 7.37227C9.10554 7.18473 9.00018 6.93038 9.00018 6.66516C9.00018 6.39994 9.10554 6.14559 9.29308 5.95805C9.48061 5.77052 9.73497 5.66516 10.0002 5.66516Z" fill="black"/>
<path fill-rule="evenodd" clip-rule="evenodd" d="M5.50018 6.45116C5.50018 9.12416 8.15318 13.6652 10.0002 13.6652C11.8482 13.6652 14.5002 9.12416 14.5002 6.45116C14.5002 3.81516 12.4932 1.66516 10.0002 1.66516C7.50718 1.66516 5.50018 3.81516 5.50018 6.45116ZM13.5002 6.45116C13.5002 8.64416 11.1522 12.6652 10.0002 12.6652C8.84918 12.6652 6.50018 8.64516 6.50018 6.45116C6.50018 4.35216 8.07518 2.66516 10.0002 2.66516C11.9252 2.66516 13.5002 4.35216 13.5002 6.45116Z" fill="black"/>
<path d="M13.4352 9.30522C13.3156 9.25378 13.2208 9.15773 13.171 9.0375C13.1211 8.91727 13.1201 8.78233 13.1681 8.66136C13.2162 8.54039 13.3095 8.44293 13.4283 8.38968C13.547 8.33644 13.6819 8.33161 13.8042 8.37622C14.2108 8.53751 14.5773 8.78578 14.8778 9.10362C15.1784 9.42147 15.4058 9.80121 15.5442 10.2162L16.8782 14.2162C17.0286 14.6674 17.0696 15.1478 16.9979 15.6179C16.9261 16.088 16.7436 16.5343 16.4655 16.9201C16.1873 17.3058 15.8214 17.6198 15.398 17.8363C14.9746 18.0528 14.5057 18.1655 14.0302 18.1652H5.97018C5.49479 18.1652 5.02621 18.0523 4.60304 17.8356C4.17988 17.619 3.81426 17.3049 3.53632 16.9192C3.25837 16.5336 3.07605 16.0874 3.0044 15.6174C2.93274 15.1475 2.9738 14.6672 3.12418 14.2162L4.45718 10.2162C4.59793 9.79377 4.83096 9.40794 5.13936 9.08675C5.44776 8.76555 5.82379 8.51703 6.24018 8.35922C6.30157 8.33591 6.36696 8.32492 6.4326 8.32688C6.49824 8.32884 6.56285 8.34371 6.62274 8.37064C6.68263 8.39757 6.73664 8.43603 6.78167 8.48383C6.8267 8.53163 6.86187 8.58783 6.88518 8.64922C6.90849 8.71062 6.91948 8.776 6.91752 8.84164C6.91556 8.90728 6.90069 8.97189 6.87376 9.03178C6.84683 9.09168 6.80837 9.14568 6.76057 9.19071C6.71277 9.23574 6.65657 9.27091 6.59518 9.29422C6.31724 9.39937 6.06622 9.56512 5.86037 9.77945C5.65453 9.99377 5.49903 10.2513 5.40518 10.5332L4.07218 14.5332C3.97204 14.8339 3.94478 15.154 3.99264 15.4673C4.04051 15.7806 4.16214 16.078 4.34749 16.335C4.53285 16.5921 4.77664 16.8014 5.05876 16.9457C5.34089 17.0901 5.65328 17.1653 5.97018 17.1652H14.0322C14.3491 17.1652 14.6615 17.0898 14.9436 16.9454C15.2257 16.8009 15.4694 16.5915 15.6547 16.3343C15.84 16.0772 15.9615 15.7797 16.0092 15.4664C16.0569 15.153 16.0295 14.8329 15.9292 14.5322L14.5972 10.5322C14.5049 10.2557 14.3532 10.0026 14.1528 9.79086C13.9525 9.57908 13.7082 9.41368 13.4372 9.30622" fill="black"/>
</svg>
