<svg width="18" height="17" viewBox="0 0 18 17" fill="none" xmlns="http://www.w3.org/2000/svg">
<path fill-rule="evenodd" clip-rule="evenodd" d="M6.47247 7.91574L3.89026 6.62392C1.64877 5.50256 0.528021 4.94187 0.631173 4.22095C0.734324 3.50002 1.96733 3.27612 4.43335 2.82832L14.0917 1.07446C15.8269 0.759367 16.6944 0.601823 17.069 1.10148C17.4436 1.60114 17.0491 2.38973 16.26 3.96691L11.8681 12.7459L11.8681 12.7459C10.7468 14.9874 10.1861 16.1082 9.46515 16.005C8.74423 15.9019 8.52032 14.6688 8.07252 12.2028L7.68517 10.0697L12.7336 6.28514C13.1801 5.95042 13.2707 5.31711 12.936 4.8706C12.6013 4.4241 11.968 4.33348 11.5215 4.66821L6.89689 8.13504C6.78324 8.07121 6.64456 8.00183 6.4725 7.91575L6.47248 7.91574L6.47247 7.91574Z" fill="#121212"/>
</svg>
